<svg xmlns="http://www.w3.org/2000/svg" xmlns:xlink="http://www.w3.org/1999/xlink" version="1.1" id="Layer_1" x="0px" y="0px" viewBox="0 0 780 440" xml:space="preserve"> <rect fill="#76E5E2" width="780" height="440"></rect> <g> <circle fill="#FFFFFF" stroke="#162020" stroke-miterlimit="10" cx="161.9" cy="302.4" r="7.4"></circle> <path fill="none" stroke="#162020" stroke-linecap="round" stroke-linejoin="round" d="M524.3,286.7l-0.1-26.5 c0-8.5,6.9-15.5,15.4-15.5h85.9c8.5,0,15.4-6.9,15.4-15.4V123.5c0-8.5-6.9-15.4-15.4-15.4H434.1"></path> <path fill="none" stroke="#162020" stroke-linecap="round" stroke-linejoin="round" d="M340.6,106.7h-63.7c-5.6,0-10.2,4.5-10.2,10 l0.2,30.3l-0.1,29c0,7.2-6.1,13-13.4,13"></path> <path fill="#FFE16E" stroke="#162020" stroke-linejoin="round" stroke-miterlimit="10" d="M537.5,363.5h136.2 c3.3,0,5.9-2.7,5.9-5.9v-56.3c0-3.3-2.7-5.9-5.9-5.9H537.5c-3.3,0-5.9,2.7-5.9,5.9v56.3C531.6,360.9,534.2,363.5,537.5,363.5z"></path> <line fill="none" stroke="#162020" stroke-linecap="round" stroke-linejoin="round" x1="462.3" y1="329.2" x2="510.2" y2="329.2"></line> <line fill="none" stroke="#162020" stroke-linecap="round" stroke-linejoin="round" x1="333.9" y1="126.8" x2="462.9" y2="126.8"></line> <path fill="none" stroke="#162020" stroke-linecap="round" stroke-linejoin="round" d="M377.7,300.4l0.2-80 c0-13.7,11.2-24.8,24.9-24.8l41.7,0.1c13.7,0,24.9-11.1,24.9-24.8l0-3.6"></path> <path fill="#FFFFFF" stroke="#162020" stroke-linecap="round" stroke-linejoin="round" d="M453.9,374h-118 c-9.8,0-17.7-7.9-17.7-17.7V83.9c0-9.8,7.9-17.7,17.7-17.7h118c9.8,0,17.7,7.9,17.7,17.7v272.4C471.7,366,463.7,374,453.9,374z"></path> <circle fill="#0F6E84" stroke="#162020" stroke-linecap="round" stroke-linejoin="round" cx="351.2" cy="109" r="16.1"></circle> <rect x="335.7" y="173.9" fill="#0F6E84" stroke="#162020" stroke-linecap="round" stroke-linejoin="round" width="34.9" height="36.3"></rect> <rect x="378" y="173.9" fill="#3896E3" stroke="#162020" stroke-linecap="round" stroke-linejoin="round" width="34.9" height="36.3"></rect> <rect x="335.7" y="218" fill="#3896E3" stroke="#162020" stroke-linecap="round" stroke-linejoin="round" width="34.9" height="36.3"></rect> <rect x="378" y="218" fill="#0F6E84" stroke="#162020" stroke-linecap="round" stroke-linejoin="round" width="34.9" height="36.3"></rect> <rect x="420.3" y="173.9" fill="#0F6E84" stroke="#162020" stroke-linecap="round" stroke-linejoin="round" width="34.9" height="36.3"></rect> <rect x="420.3" y="218" fill="#3896E3" stroke="#162020" stroke-linecap="round" stroke-linejoin="round" width="34.9" height="36.3"></rect> <rect x="335.7" y="260.7" fill="#0F6E84" stroke="#162020" stroke-linecap="round" stroke-linejoin="round" width="34.9" height="36.3"></rect> <rect x="378" y="260.7" fill="#3896E3" stroke="#162020" stroke-linecap="round" stroke-linejoin="round" width="34.9" height="36.3"></rect> <rect x="420.3" y="260.7" fill="#0F6E84" stroke="#162020" stroke-linecap="round" stroke-linejoin="round" width="34.9" height="36.3"></rect> <path fill="#FFE16E" stroke="#162020" stroke-linejoin="round" stroke-miterlimit="10" d="M421.9,74.5h-54.4 c-4.7,0-8.5-3.8-8.5-8.5v0h71.3v0C430.4,70.7,426.6,74.5,421.9,74.5z"></path> <line fill="none" stroke="#162020" stroke-linecap="round" stroke-linejoin="round" x1="337.8" y1="144.3" x2="452.3" y2="144.3"></line> <line fill="none" stroke="#162020" stroke-linecap="round" stroke-linejoin="round" x1="337.8" y1="158.2" x2="413.1" y2="158.2"></line> <line fill="none" stroke="#162020" stroke-linecap="round" stroke-linejoin="round" x1="381.3" y1="108.9" x2="445.5" y2="108.9"></line> <path fill="#3896E3" stroke="#162020" stroke-linecap="round" stroke-linejoin="round" d="M511.9,351.9H660c3.6,0,6.5-2.9,6.5-6.5 v-61.2c0-3.6-2.9-6.5-6.5-6.5H511.9c-3.6,0-6.5,2.9-6.5,6.5v61.2C505.5,349,508.4,351.9,511.9,351.9z"></path> <path fill="#FFE16E" stroke="#162020" stroke-linejoin="round" stroke-miterlimit="10" d="M555.3,304.4h48.6c2.2,0,4-1.8,4-4l0,0 c0-2.2-1.8-4-4-4h-48.6c-2.2,0-4,1.8-4,4l0,0C551.4,302.6,553.2,304.4,555.3,304.4z"></path> <circle fill="#FFFFFF" stroke="#162020" stroke-miterlimit="10" cx="529.6" cy="301.5" r="11.8"></circle> <g> <g> <path fill="#FFE16E" stroke="#162020" stroke-linejoin="round" stroke-miterlimit="10" d="M594.3,89.8h-81.2 c-4.4,0-7.9,3.7-7.8,8.2l0.2,12.1v98.2c0,4.5,3.5,8.1,7.8,8.1h81c4.3,0,7.8-3.6,7.8-8.1V97.9C602.1,93.4,598.6,89.8,594.3,89.8z"></path> </g> </g> <line fill="none" stroke="#162020" stroke-linecap="round" stroke-linejoin="round" x1="519.6" y1="325.2" x2="644.6" y2="325.2"></line> <line fill="none" stroke="#162020" stroke-linecap="round" stroke-linejoin="round" x1="519.6" y1="336.1" x2="623.6" y2="336.1"></line> <path fill="none" stroke="#162020" stroke-linecap="round" stroke-linejoin="round" d="M240,175.6H130.1c-9.1,0-16.5,7.4-16.5,16.5 v36.3c0,9.1,7.4,16.5,16.5,16.5h139.7c9.1,0,16.5,7.4,16.5,16.5v57.9c0,9.1-0.4,10-9.5,10h-62.9"></path> <g> <g> <circle fill="#FFFFFF" stroke="#162020" stroke-miterlimit="10" cx="526.5" cy="119" r="9.5"></circle> </g> <polyline fill="none" stroke="#162020" stroke-linecap="round" stroke-linejoin="round" stroke-miterlimit="10" points=" 522.4,119.3 525.3,121.9 530.5,116.2 "></polyline> <g> <circle fill="#FFFFFF" stroke="#162020" stroke-miterlimit="10" cx="526.5" cy="155.9" r="9.5"></circle> </g> <polyline fill="none" stroke="#162020" stroke-linecap="round" stroke-linejoin="round" stroke-miterlimit="10" points=" 522.4,156 525.3,158.7 530.5,153 "></polyline> <g> <circle fill="#FFFFFF" stroke="#162020" stroke-miterlimit="10" cx="526.5" cy="190.6" r="9.5"></circle> </g> <polyline fill="none" stroke="#162020" stroke-linecap="round" stroke-linejoin="round" stroke-miterlimit="10" points=" 522.4,190.7 525.3,193.5 530.5,187.7 "></polyline> <line fill="none" stroke="#162020" stroke-linecap="round" stroke-miterlimit="10" x1="545.5" y1="115.2" x2="589" y2="115.2"></line> <line fill="none" stroke="#162020" stroke-linecap="round" stroke-miterlimit="10" x1="545.5" y1="122.2" x2="579.8" y2="122.2"></line> <line fill="none" stroke="#162020" stroke-linecap="round" stroke-miterlimit="10" x1="545.5" y1="152.1" x2="589" y2="152.1"></line> <line fill="none" stroke="#162020" stroke-linecap="round" stroke-miterlimit="10" x1="545.5" y1="159.1" x2="579.8" y2="159.1"></line> <line fill="none" stroke="#162020" stroke-linecap="round" stroke-miterlimit="10" x1="545.5" y1="186.9" x2="589" y2="186.9"></line> <line fill="none" stroke="#162020" stroke-linecap="round" stroke-miterlimit="10" x1="545.5" y1="193.9" x2="579.8" y2="193.9"></line> </g> <g> <g> <path fill="#FFE16E" stroke="#162020" stroke-linejoin="round" stroke-miterlimit="10" d="M138.3,153.6h97c3.4,0,6.2-2.8,6.2-6.2 V96.2c0-3.4-2.8-6.2-6.2-6.2h-97c-3.4,0-6.2,2.8-6.2,6.2v51.2C132.1,150.9,134.8,153.6,138.3,153.6z"></path> <circle fill="#FFFFFF" stroke="#162020" stroke-linecap="round" stroke-linejoin="round" cx="159.4" cy="120.5" r="6.3"></circle> <circle fill="#FFFFFF" stroke="#162020" stroke-linecap="round" stroke-linejoin="round" cx="185.2" cy="120.5" r="6.3"></circle> <circle fill="#FFFFFF" stroke="#162020" stroke-linecap="round" stroke-linejoin="round" cx="211" cy="120.5" r="6.3"></circle> </g> <path fill="#3896E3" stroke="#162020" stroke-linecap="round" stroke-linejoin="round" d="M169.5,205h43.1l8.6,9.8 c1.3,1.5,3.6,1.5,5,0.1l9.5-9.9h42.4c3.7,0,6.7-3.1,6.7-6.9v-55c0-3.8-3-6.9-6.7-6.9H169.5c-3.7,0-6.7,3.1-6.7,6.9v55 C162.8,201.9,165.8,205,169.5,205z"></path> <line fill="none" stroke="#162020" stroke-linecap="round" stroke-linejoin="round" x1="179.9" y1="176.4" x2="261.9" y2="176.4"></line> <line fill="none" stroke="#162020" stroke-linecap="round" stroke-linejoin="round" x1="179.9" y1="187" x2="245.3" y2="187"></line> <path fill="#FFE16E" stroke="#162020" stroke-linejoin="round" stroke-miterlimit="10" d="M182.8,161.3H233c2.3,0,4.1-1.8,4.1-4.1 v0c0-2.3-1.8-4.1-4.1-4.1h-50.2c-2.3,0-4.1,1.8-4.1,4.1v0C178.7,159.4,180.5,161.3,182.8,161.3z"></path> </g> <g> <defs> <circle id="SVGID_1_" cx="181.8" cy="317.1" r="55.7"></circle> </defs> <use xlink:href="#SVGID_1_" overflow="visible" fill="#0F6E84"></use> <clipPath id="SVGID_2_"> <use xlink:href="#SVGID_1_" overflow="visible"></use> </clipPath> <g clip-path="url(#SVGID_2_)"> <g> <g> <g> <g> <path fill="#F2CDAE" stroke="#162020" stroke-linecap="round" stroke-linejoin="round" d="M203.4,317.2 c-1.1,12.4-9.9,22.6-22,22.6s-21.1-10.7-22-22.6c-1-12.4,9.9-22.6,22-22.6S204.5,304.7,203.4,317.2z"></path> </g> </g> </g> <g> <path fill="#FFE16E" stroke="#162020" stroke-linejoin="round" stroke-miterlimit="10" d="M181.6,315c7.6,0,14.8-2.9,21.6-2.4 c0.2-1.1,0.3-2.2,0.3-3.4c0-10.7-9.9-19.4-22.1-19.4c-12.2,0-22.1,8.7-22.1,19.4c0,1.2,0.1,2.3,0.3,3.4 C166.6,312.2,174,315,181.6,315z"></path> <path fill="#FFE16E" stroke="#162020" stroke-linejoin="round" stroke-miterlimit="10" d="M181.6,317.1c0,0-7.2-2.3-10.7-3 c-3.9-0.7-7.5-1.4-11.1-1.1l-0.3,0l-0.1-0.3c-0.2-1.2-0.4-2.3-0.3-3.5c0.3-10.5,10.1-21.9,22.4-21.9s21.5,10.4,22.4,21.9 c0.1,1.1-0.1,2.3-0.3,3.4l-0.1,0.3l-0.3,0c-3.5-0.2-7.1,0.4-11,1.1C188.8,314.7,181.6,317.1,181.6,317.1z"></path> </g> <g> <path fill="#FFE16E" stroke="#162020" stroke-linejoin="round" stroke-miterlimit="10" d="M182.1,306.6l-39.6-11.8 c-1.7-0.5-1.7-2.9,0-3.3l37.6-10.9c0.3-0.1,0.7-0.1,1,0l39.6,11.8c1.7,0.5,1.7,2.9,0,3.3L183,306.6 C182.7,306.7,182.4,306.7,182.1,306.6z"></path> </g> </g> <path fill="#FFFFFF" stroke="#162020" stroke-linecap="round" stroke-linejoin="round" d="M163.3,429.1h36.4 c11.3,0,20.5-9.2,20.5-20.5V365c0-11.3-9.2-20.5-20.5-20.5h-36.4c-11.3,0-20.5,9.2-20.5,20.5v43.6 C142.8,419.9,152,429.1,163.3,429.1z"></path> <path fill="none" stroke="#162020" stroke-linecap="round" stroke-linejoin="round" d="M181.3,291.3l-31,8.5 c-1.4,0.4-2.3,1.6-2.3,2.9v12.8"></path> <path fill="#3896E3" stroke="#162020" stroke-linecap="round" stroke-linejoin="round" d="M151.4,321.8h-5.8v-8.6 c0-1.5,1.2-2.6,2.6-2.6h0.6c1.5,0,2.6,1.2,2.6,2.6V321.8z"></path> </g> <use xlink:href="#SVGID_1_" overflow="visible" fill="none" stroke="#162020" stroke-linecap="round" stroke-linejoin="round"></use> </g> <path fill="#FFE16E" stroke="#162020" stroke-linejoin="round" stroke-miterlimit="10" d="M434.9,350.1H286.8 c-10.9,0-19.8-8.8-19.8-19.8v-0.9c0-10.9,8.8-19.8,19.8-19.8h148.1c10.9,0,19.8,8.8,19.8,19.8v0.9 C454.7,341.2,445.8,350.1,434.9,350.1z"></path> <polygon fill="#FFFFFF" stroke="#162020" stroke-linecap="round" stroke-linejoin="round" stroke-miterlimit="10" points=" 435,338.4 427.8,335 420.6,338.4 420.6,322.2 435,322.2 "></polygon> <path fill="#FFFFFF" stroke="#162020" stroke-linecap="round" stroke-linejoin="round" stroke-miterlimit="10" d="M325,330.6 c0,0.8-0.3,2.6-0.5,3.1v4.4l-3.9-0.8c-0.8,0.3-2.9,1-3.9,1c-4.4,0-8-3.6-8-8s3.6-8,8-8C321.4,322.5,325,326.4,325,330.6z"></path> <path fill="#FFFFFF" stroke="#162020" stroke-linecap="round" stroke-linejoin="round" stroke-miterlimit="10" d="M299,331.2 L299,331.2l-7,7l-7-7l0,0c-1-1-1.8-2.3-1.8-3.9c0-2.6,2.1-4.9,4.9-4.9c1.6,0,2.9,0.8,3.9,1.8l0,0l0,0c1-1,2.3-1.8,3.9-1.8 c2.6,0,4.9,2.1,4.9,4.9C300.8,328.9,300,330.4,299,331.2z"></path> </g> </svg>